<svg xmlns="http://www.w3.org/2000/svg" viewBox="0 0 200 200">
  <rect width="200" height="200" rx="44" fill="#010101"/>
  <path d="M141.5 68.2c-8.8-5.7-14.7-15.5-15.4-26.7h-0.1c-0.1-1-0.2-2-0.2-3h-24.3v82.8c0 0.5 0 1 0 1.5 0 0.3 0 0.5 0 0.8 0 0.1 0 0.2 0 0.3-0.8 11.3-10.2 20.2-21.7 20.2-12 0-21.8-9.8-21.8-21.8s9.8-21.8 21.8-21.8c2.3 0 4.5 0.4 6.6 1v-24.8c-2.2-0.3-4.4-0.5-6.6-0.5-25.4 0-46 20.6-46 46s20.6 46 46 46c25.4 0 46-20.6 46-46V95.4c9.5 6.8 21.2 10.8 33.8 10.8V82c-6.8 0-13.2-2-18.5-5.4 0 0 0 0 0 0-0.1-0.1-0.1-0.1-0.2-0.1z" fill="#25F4EE"/>
  <path d="M141.5 68.2c7 4.5 15.3 7.2 24.2 7.5v-0.1c-0.2 0-0.3 0-0.5 0V82c-6.8 0-13.2-2-18.5-5.4-0.3-0.2-0.5-0.3-0.8-0.5 5.3 3.4 11.7 5.6 18.5 5.6 0.3 0 0.5 0 0.8 0v-6.3c-9-0.3-17.1-3.7-23.7-9.1z" fill="#FE2C55"/>
</svg>
